<mxfile host="app.diagrams.net" modified="2023-12-27T17:24:30.302Z" agent="Mozilla/5.0 (Macintosh; Intel Mac OS X 10_15_7) AppleWebKit/537.36 (KHTML, like Gecko) Chrome/120.0.0.0 Safari/537.36" etag="MzdGV7E0DWM3JjoUNGlR" version="22.1.11" type="github" pages="2">
  <diagram name="Страница — 1" id="cVkNzKeCaGkMv3nFwL5P">
    <mxGraphModel dx="605" dy="341" grid="0" gridSize="10" guides="1" tooltips="1" connect="1" arrows="1" fold="1" page="0" pageScale="1" pageWidth="827" pageHeight="1169" math="0" shadow="0">
      <root>
        <mxCell id="0" />
        <mxCell id="1" parent="0" />
      </root>
    </mxGraphModel>
  </diagram>
  <diagram id="b68eDUNpJ7fWGquXR5oQ" name="Страница — 2">
    <mxGraphModel dx="1385" dy="1520" grid="0" gridSize="10" guides="1" tooltips="1" connect="1" arrows="1" fold="1" page="0" pageScale="1" pageWidth="827" pageHeight="1169" math="0" shadow="0">
      <root>
        <mxCell id="0" />
        <mxCell id="1" parent="0" />
        <mxCell id="R417nK-7KEhufAXsytzX-68" value="" style="edgeStyle=none;rounded=0;jumpStyle=none;html=1;shadow=0;labelBackgroundColor=none;startArrow=none;startFill=0;endArrow=classic;endFill=1;jettySize=auto;orthogonalLoop=1;strokeColor=#2F5B7C;strokeWidth=3;fontFamily=Helvetica;fontSize=16;fontColor=#23445D;spacing=5;" edge="1" parent="1" source="R417nK-7KEhufAXsytzX-72" target="R417nK-7KEhufAXsytzX-87">
          <mxGeometry relative="1" as="geometry" />
        </mxCell>
        <mxCell id="R417nK-7KEhufAXsytzX-69" value="" style="edgeStyle=none;rounded=0;jumpStyle=none;html=1;shadow=0;labelBackgroundColor=none;startArrow=none;startFill=0;endArrow=classic;endFill=1;jettySize=auto;orthogonalLoop=1;strokeColor=#2F5B7C;strokeWidth=3;fontFamily=Helvetica;fontSize=16;fontColor=#23445D;spacing=5;" edge="1" parent="1" source="R417nK-7KEhufAXsytzX-72" target="R417nK-7KEhufAXsytzX-94">
          <mxGeometry relative="1" as="geometry" />
        </mxCell>
        <mxCell id="R417nK-7KEhufAXsytzX-70" value="" style="edgeStyle=none;rounded=0;jumpStyle=none;html=1;shadow=0;labelBackgroundColor=none;startArrow=none;startFill=0;endArrow=classic;endFill=1;jettySize=auto;orthogonalLoop=1;strokeColor=#2F5B7C;strokeWidth=3;fontFamily=Helvetica;fontSize=16;fontColor=#23445D;spacing=5;" edge="1" parent="1" source="R417nK-7KEhufAXsytzX-72" target="R417nK-7KEhufAXsytzX-83">
          <mxGeometry relative="1" as="geometry" />
        </mxCell>
        <mxCell id="R417nK-7KEhufAXsytzX-72" value="Advertising" style="rounded=1;whiteSpace=wrap;html=1;shadow=0;labelBackgroundColor=none;strokeColor=none;strokeWidth=3;fillColor=#2F5B7C;fontFamily=Helvetica;fontSize=16;fontColor=#FFFFFF;align=center;fontStyle=1;spacing=5;arcSize=7;perimeterSpacing=2;" vertex="1" parent="1">
          <mxGeometry x="501" y="350" width="150" height="70" as="geometry" />
        </mxCell>
        <mxCell id="R417nK-7KEhufAXsytzX-80" value="" style="edgeStyle=none;rounded=0;jumpStyle=none;html=1;shadow=0;labelBackgroundColor=none;startArrow=none;startFill=0;endArrow=classic;endFill=1;jettySize=auto;orthogonalLoop=1;strokeColor=#1699D3;strokeWidth=3;fontFamily=Helvetica;fontSize=14;fontColor=#FFFFFF;spacing=5;" edge="1" parent="1" source="R417nK-7KEhufAXsytzX-83" target="R417nK-7KEhufAXsytzX-86">
          <mxGeometry relative="1" as="geometry" />
        </mxCell>
        <mxCell id="R417nK-7KEhufAXsytzX-81" value="" style="edgeStyle=none;rounded=0;jumpStyle=none;html=1;shadow=0;labelBackgroundColor=none;startArrow=none;startFill=0;endArrow=classic;endFill=1;jettySize=auto;orthogonalLoop=1;strokeColor=#1699D3;strokeWidth=3;fontFamily=Helvetica;fontSize=14;fontColor=#FFFFFF;spacing=5;" edge="1" parent="1" source="R417nK-7KEhufAXsytzX-83" target="R417nK-7KEhufAXsytzX-85">
          <mxGeometry relative="1" as="geometry" />
        </mxCell>
        <mxCell id="R417nK-7KEhufAXsytzX-82" value="" style="edgeStyle=none;rounded=0;jumpStyle=none;html=1;shadow=0;labelBackgroundColor=none;startArrow=none;startFill=0;endArrow=classic;endFill=1;jettySize=auto;orthogonalLoop=1;strokeColor=#1699D3;strokeWidth=3;fontFamily=Helvetica;fontSize=14;fontColor=#FFFFFF;spacing=5;" edge="1" parent="1" source="R417nK-7KEhufAXsytzX-83" target="R417nK-7KEhufAXsytzX-84">
          <mxGeometry relative="1" as="geometry" />
        </mxCell>
        <mxCell id="R417nK-7KEhufAXsytzX-83" value="Organization" style="rounded=1;whiteSpace=wrap;html=1;shadow=0;labelBackgroundColor=none;strokeColor=none;strokeWidth=3;fillColor=#1699d3;fontFamily=Helvetica;fontSize=14;fontColor=#FFFFFF;align=center;spacing=5;fontStyle=1;arcSize=7;perimeterSpacing=2;" vertex="1" parent="1">
          <mxGeometry x="501" y="540" width="150" height="60" as="geometry" />
        </mxCell>
        <mxCell id="R417nK-7KEhufAXsytzX-114" style="edgeStyle=none;curved=1;rounded=0;orthogonalLoop=1;jettySize=auto;html=1;fontSize=12;startSize=8;endSize=8;" edge="1" parent="1" source="R417nK-7KEhufAXsytzX-84" target="R417nK-7KEhufAXsytzX-112">
          <mxGeometry relative="1" as="geometry" />
        </mxCell>
        <mxCell id="R417nK-7KEhufAXsytzX-115" style="edgeStyle=none;curved=1;rounded=0;orthogonalLoop=1;jettySize=auto;html=1;fontSize=12;startSize=8;endSize=8;" edge="1" parent="1" source="R417nK-7KEhufAXsytzX-84" target="R417nK-7KEhufAXsytzX-113">
          <mxGeometry relative="1" as="geometry" />
        </mxCell>
        <mxCell id="R417nK-7KEhufAXsytzX-84" value="Content" style="rounded=1;whiteSpace=wrap;html=1;shadow=0;labelBackgroundColor=none;strokeColor=none;strokeWidth=3;fillColor=#64bbe2;fontFamily=Helvetica;fontSize=14;fontColor=#FFFFFF;align=center;spacing=5;arcSize=7;perimeterSpacing=2;" vertex="1" parent="1">
          <mxGeometry x="701" y="620" width="150" height="60" as="geometry" />
        </mxCell>
        <mxCell id="R417nK-7KEhufAXsytzX-85" value="Budget" style="rounded=1;whiteSpace=wrap;html=1;shadow=0;labelBackgroundColor=none;strokeColor=none;strokeWidth=3;fillColor=#64bbe2;fontFamily=Helvetica;fontSize=14;fontColor=#FFFFFF;align=center;spacing=5;arcSize=7;perimeterSpacing=2;" vertex="1" parent="1">
          <mxGeometry x="501" y="686" width="150" height="60" as="geometry" />
        </mxCell>
        <mxCell id="R417nK-7KEhufAXsytzX-86" value="Analysis" style="rounded=1;whiteSpace=wrap;html=1;shadow=0;labelBackgroundColor=none;strokeColor=none;strokeWidth=3;fillColor=#64bbe2;fontFamily=Helvetica;fontSize=14;fontColor=#FFFFFF;align=center;spacing=5;arcSize=7;perimeterSpacing=2;" vertex="1" parent="1">
          <mxGeometry x="301" y="620" width="150" height="60" as="geometry" />
        </mxCell>
        <mxCell id="R417nK-7KEhufAXsytzX-87" value="Marketing" style="rounded=1;whiteSpace=wrap;html=1;shadow=0;labelBackgroundColor=none;strokeColor=none;strokeWidth=3;fillColor=#F08705;fontFamily=Helvetica;fontSize=14;fontColor=#FFFFFF;align=center;spacing=5;fontStyle=1;arcSize=0;perimeterSpacing=2;" vertex="1" parent="1">
          <mxGeometry x="501" y="170" width="145" height="60" as="geometry" />
        </mxCell>
        <mxCell id="R417nK-7KEhufAXsytzX-88" value="Instagram&lt;br&gt;LinkedIn&lt;br&gt;FB" style="rounded=1;whiteSpace=wrap;html=1;shadow=0;labelBackgroundColor=none;strokeColor=none;strokeWidth=3;fillColor=#f5af58;fontFamily=Helvetica;fontSize=14;fontColor=#FFFFFF;align=center;spacing=5;arcSize=7;perimeterSpacing=2;" vertex="1" parent="1">
          <mxGeometry x="665" y="20" width="150" height="60" as="geometry" />
        </mxCell>
        <mxCell id="R417nK-7KEhufAXsytzX-89" value="" style="edgeStyle=none;rounded=0;jumpStyle=none;html=1;shadow=0;labelBackgroundColor=none;startArrow=none;startFill=0;endArrow=classic;endFill=1;jettySize=auto;orthogonalLoop=1;strokeColor=#F08705;strokeWidth=3;fontFamily=Helvetica;fontSize=14;fontColor=#FFFFFF;spacing=5;" edge="1" parent="1" source="R417nK-7KEhufAXsytzX-87" target="R417nK-7KEhufAXsytzX-88">
          <mxGeometry relative="1" as="geometry" />
        </mxCell>
        <mxCell id="R417nK-7KEhufAXsytzX-90" value="Google-AD&lt;br&gt;((YT,Google))" style="rounded=1;whiteSpace=wrap;html=1;shadow=0;labelBackgroundColor=none;strokeColor=none;strokeWidth=3;fillColor=#f5af58;fontFamily=Helvetica;fontSize=14;fontColor=#FFFFFF;align=center;spacing=5;arcSize=7;perimeterSpacing=2;" vertex="1" parent="1">
          <mxGeometry x="501" y="20" width="150" height="60" as="geometry" />
        </mxCell>
        <mxCell id="R417nK-7KEhufAXsytzX-91" value="" style="edgeStyle=none;rounded=0;jumpStyle=none;html=1;shadow=0;labelBackgroundColor=none;startArrow=none;startFill=0;endArrow=classic;endFill=1;jettySize=auto;orthogonalLoop=1;strokeColor=#F08705;strokeWidth=3;fontFamily=Helvetica;fontSize=14;fontColor=#FFFFFF;spacing=5;" edge="1" parent="1" source="R417nK-7KEhufAXsytzX-87" target="R417nK-7KEhufAXsytzX-90">
          <mxGeometry relative="1" as="geometry" />
        </mxCell>
        <mxCell id="R417nK-7KEhufAXsytzX-92" value="SMS/Mail" style="rounded=1;whiteSpace=wrap;html=1;shadow=0;labelBackgroundColor=none;strokeColor=none;strokeWidth=3;fillColor=#f5af58;fontFamily=Helvetica;fontSize=14;fontColor=#FFFFFF;align=center;spacing=5;arcSize=7;perimeterSpacing=2;" vertex="1" parent="1">
          <mxGeometry x="337" y="20" width="150" height="60" as="geometry" />
        </mxCell>
        <mxCell id="R417nK-7KEhufAXsytzX-93" value="" style="edgeStyle=none;rounded=0;jumpStyle=none;html=1;shadow=0;labelBackgroundColor=none;startArrow=none;startFill=0;endArrow=classic;endFill=1;jettySize=auto;orthogonalLoop=1;strokeColor=#F08705;strokeWidth=3;fontFamily=Helvetica;fontSize=14;fontColor=#FFFFFF;spacing=5;" edge="1" parent="1" source="R417nK-7KEhufAXsytzX-87" target="R417nK-7KEhufAXsytzX-92">
          <mxGeometry relative="1" as="geometry" />
        </mxCell>
        <mxCell id="R417nK-7KEhufAXsytzX-94" value="Communication" style="rounded=1;whiteSpace=wrap;html=1;shadow=0;labelBackgroundColor=none;strokeColor=none;strokeWidth=3;fillColor=#12aab5;fontFamily=Helvetica;fontSize=14;fontColor=#FFFFFF;align=center;spacing=5;fontStyle=1;arcSize=7;perimeterSpacing=2;" vertex="1" parent="1">
          <mxGeometry x="801" y="354.9999999999999" width="150" height="60" as="geometry" />
        </mxCell>
        <mxCell id="R417nK-7KEhufAXsytzX-95" value="Events?" style="rounded=1;whiteSpace=wrap;html=1;shadow=0;labelBackgroundColor=none;strokeColor=none;strokeWidth=3;fillColor=#61c6ce;fontFamily=Helvetica;fontSize=14;fontColor=#FFFFFF;align=center;spacing=5;fontStyle=0;arcSize=7;perimeterSpacing=2;" vertex="1" parent="1">
          <mxGeometry x="936" y="458" width="150" height="60" as="geometry" />
        </mxCell>
        <mxCell id="R417nK-7KEhufAXsytzX-96" value="" style="edgeStyle=none;rounded=1;jumpStyle=none;html=1;shadow=0;labelBackgroundColor=none;startArrow=none;startFill=0;jettySize=auto;orthogonalLoop=1;strokeColor=#12AAB5;strokeWidth=3;fontFamily=Helvetica;fontSize=14;fontColor=#FFFFFF;spacing=5;fontStyle=1;fillColor=#b0e3e6;" edge="1" parent="1" source="R417nK-7KEhufAXsytzX-94" target="R417nK-7KEhufAXsytzX-95">
          <mxGeometry relative="1" as="geometry" />
        </mxCell>
        <mxCell id="R417nK-7KEhufAXsytzX-109" style="edgeStyle=none;curved=1;rounded=0;orthogonalLoop=1;jettySize=auto;html=1;fontSize=12;startSize=8;endSize=8;" edge="1" parent="1" source="R417nK-7KEhufAXsytzX-97" target="R417nK-7KEhufAXsytzX-107">
          <mxGeometry relative="1" as="geometry" />
        </mxCell>
        <mxCell id="R417nK-7KEhufAXsytzX-111" style="edgeStyle=none;curved=1;rounded=0;orthogonalLoop=1;jettySize=auto;html=1;exitX=1;exitY=0;exitDx=0;exitDy=0;fontSize=12;startSize=8;endSize=8;" edge="1" parent="1" source="R417nK-7KEhufAXsytzX-97" target="R417nK-7KEhufAXsytzX-110">
          <mxGeometry relative="1" as="geometry" />
        </mxCell>
        <mxCell id="R417nK-7KEhufAXsytzX-97" value="Media" style="rounded=1;whiteSpace=wrap;html=1;shadow=0;labelBackgroundColor=none;strokeColor=none;strokeWidth=3;fillColor=#61c6ce;fontFamily=Helvetica;fontSize=14;fontColor=#FFFFFF;align=center;spacing=5;fontStyle=0;arcSize=7;perimeterSpacing=2;" vertex="1" parent="1">
          <mxGeometry x="1009" y="355" width="150" height="60" as="geometry" />
        </mxCell>
        <mxCell id="R417nK-7KEhufAXsytzX-98" value="" style="edgeStyle=none;rounded=1;jumpStyle=none;html=1;shadow=0;labelBackgroundColor=none;startArrow=none;startFill=0;jettySize=auto;orthogonalLoop=1;strokeColor=#12AAB5;strokeWidth=3;fontFamily=Helvetica;fontSize=14;fontColor=#FFFFFF;spacing=5;fontStyle=1;fillColor=#b0e3e6;" edge="1" parent="1" source="R417nK-7KEhufAXsytzX-94" target="R417nK-7KEhufAXsytzX-97">
          <mxGeometry relative="1" as="geometry" />
        </mxCell>
        <mxCell id="R417nK-7KEhufAXsytzX-99" value="Mail/Phone" style="rounded=1;whiteSpace=wrap;html=1;shadow=0;labelBackgroundColor=none;strokeColor=none;strokeWidth=3;fillColor=#61c6ce;fontFamily=Helvetica;fontSize=14;fontColor=#FFFFFF;align=center;spacing=5;fontStyle=0;arcSize=7;perimeterSpacing=2;" vertex="1" parent="1">
          <mxGeometry x="941" y="235" width="150" height="60" as="geometry" />
        </mxCell>
        <mxCell id="R417nK-7KEhufAXsytzX-100" value="" style="edgeStyle=none;rounded=1;jumpStyle=none;html=1;shadow=0;labelBackgroundColor=none;startArrow=none;startFill=0;jettySize=auto;orthogonalLoop=1;strokeColor=#12AAB5;strokeWidth=3;fontFamily=Helvetica;fontSize=14;fontColor=#FFFFFF;spacing=5;fontStyle=1;fillColor=#b0e3e6;" edge="1" parent="1" source="R417nK-7KEhufAXsytzX-94" target="R417nK-7KEhufAXsytzX-99">
          <mxGeometry relative="1" as="geometry" />
        </mxCell>
        <mxCell id="R417nK-7KEhufAXsytzX-103" value="Банеры по городу?" style="rounded=1;whiteSpace=wrap;html=1;shadow=0;labelBackgroundColor=none;strokeColor=none;strokeWidth=3;fillColor=#f5af58;fontFamily=Helvetica;fontSize=14;fontColor=#FFFFFF;align=center;spacing=5;arcSize=7;perimeterSpacing=2;" vertex="1" parent="1">
          <mxGeometry x="701" y="129" width="150" height="60" as="geometry" />
        </mxCell>
        <mxCell id="R417nK-7KEhufAXsytzX-105" value="" style="edgeStyle=none;rounded=0;jumpStyle=none;html=1;shadow=0;labelBackgroundColor=none;startArrow=none;startFill=0;endArrow=classic;endFill=1;jettySize=auto;orthogonalLoop=1;strokeColor=#F08705;strokeWidth=3;fontFamily=Helvetica;fontSize=14;fontColor=#FFFFFF;spacing=5;" edge="1" parent="1" target="R417nK-7KEhufAXsytzX-103">
          <mxGeometry relative="1" as="geometry">
            <mxPoint x="619" y="178" as="sourcePoint" />
            <mxPoint x="714" y="92" as="targetPoint" />
            <Array as="points">
              <mxPoint x="633" y="182" />
            </Array>
          </mxGeometry>
        </mxCell>
        <mxCell id="R417nK-7KEhufAXsytzX-107" value="Мемы?&lt;br&gt;" style="rounded=1;whiteSpace=wrap;html=1;shadow=0;labelBackgroundColor=none;strokeColor=none;strokeWidth=3;fillColor=#64bbe2;fontFamily=Helvetica;fontSize=14;fontColor=#FFFFFF;align=center;spacing=5;arcSize=7;perimeterSpacing=2;" vertex="1" parent="1">
          <mxGeometry x="1301" y="360.5" width="93" height="49" as="geometry" />
        </mxCell>
        <mxCell id="R417nK-7KEhufAXsytzX-110" value="&lt;ul style=&quot;list-style-type: circle; color: rgb(0, 0, 0); font-size: medium; text-align: start;&quot; class=&quot;ul1&quot;&gt;&lt;li style=&quot;margin: 0px; font-variant-numeric: normal; font-variant-east-asian: normal; font-variant-alternates: normal; font-kerning: auto; font-optical-sizing: auto; font-feature-settings: normal; font-variation-settings: normal; font-variant-position: normal; font-stretch: normal; font-size: 12px; line-height: normal;&quot; class=&quot;li1&quot;&gt;Регулярний постинг&lt;/li&gt;&lt;/ul&gt;" style="rounded=1;whiteSpace=wrap;html=1;shadow=0;labelBackgroundColor=none;strokeColor=none;strokeWidth=3;fillColor=#61c6ce;fontFamily=Helvetica;fontSize=14;fontColor=#FFFFFF;align=center;spacing=5;fontStyle=0;arcSize=7;perimeterSpacing=2;" vertex="1" parent="1">
          <mxGeometry x="1180" y="276" width="129" height="54" as="geometry" />
        </mxCell>
        <mxCell id="R417nK-7KEhufAXsytzX-112" value="&lt;span style=&quot;background-color: initial;&quot;&gt;&lt;br&gt;&lt;br&gt;Мерч&lt;/span&gt;&lt;br&gt;&lt;br&gt;" style="rounded=1;whiteSpace=wrap;html=1;shadow=0;labelBackgroundColor=none;strokeColor=none;strokeWidth=3;fillColor=#64bbe2;fontFamily=Helvetica;fontSize=14;fontColor=#FFFFFF;align=center;spacing=5;arcSize=7;perimeterSpacing=2;" vertex="1" parent="1">
          <mxGeometry x="951" y="665" width="78" height="47" as="geometry" />
        </mxCell>
        <mxCell id="R417nK-7KEhufAXsytzX-113" value="&lt;ul style=&quot;list-style-type: circle; color: rgb(0, 0, 0); font-size: medium; text-align: start;&quot; class=&quot;ul1&quot;&gt;&lt;li style=&quot;margin: 0px; font-variant-numeric: normal; font-variant-east-asian: normal; font-variant-alternates: normal; font-kerning: auto; font-optical-sizing: auto; font-feature-settings: normal; font-variation-settings: normal; font-variant-position: normal; font-stretch: normal; font-size: 12px; line-height: normal;&quot; class=&quot;li1&quot;&gt;Наліпки&lt;/li&gt;&lt;/ul&gt;" style="rounded=1;whiteSpace=wrap;html=1;shadow=0;labelBackgroundColor=none;strokeColor=none;strokeWidth=3;fillColor=#64bbe2;fontFamily=Helvetica;fontSize=14;fontColor=#FFFFFF;align=center;spacing=5;arcSize=7;perimeterSpacing=2;" vertex="1" parent="1">
          <mxGeometry x="830" y="734" width="106" height="60" as="geometry" />
        </mxCell>
      </root>
    </mxGraphModel>
  </diagram>
</mxfile>
